<svg width="478" height="142" viewBox="0 0 478 142" fill="none" xmlns="http://www.w3.org/2000/svg">
<rect x="43.5" y="36.5" width="84" height="70" rx="9.5" fill="#025464" stroke="url(#paint0_linear_89_2)"/>
<rect x="86" width="85" height="71" rx="10" fill="#E57C23"/>
<rect y="71" width="85" height="71" rx="10" fill="#E8AA42"/>
<path d="M208.727 107.989C205.386 107.989 202.409 107.409 199.795 106.25C197.182 105.068 195.114 103.33 193.591 101.034C192.091 98.7159 191.341 95.8295 191.341 92.375C191.341 89.4659 191.875 87.0227 192.943 85.0455C194.011 83.0682 195.466 81.4773 197.307 80.2727C199.148 79.0682 201.239 78.1591 203.58 77.5455C205.943 76.9318 208.42 76.5 211.011 76.25C214.057 75.9318 216.511 75.6364 218.375 75.3636C220.239 75.0682 221.591 74.6364 222.432 74.0682C223.273 73.5 223.693 72.6591 223.693 71.5455V71.3409C223.693 69.1818 223.011 67.5114 221.648 66.3295C220.307 65.1477 218.398 64.5568 215.92 64.5568C213.307 64.5568 211.227 65.1364 209.682 66.2955C208.136 67.4318 207.114 68.8636 206.614 70.5909L193.182 69.5C193.864 66.3182 195.205 63.5682 197.205 61.25C199.205 58.9091 201.784 57.1136 204.943 55.8636C208.125 54.5909 211.807 53.9545 215.989 53.9545C218.898 53.9545 221.682 54.2955 224.341 54.9773C227.023 55.6591 229.398 56.7159 231.466 58.1477C233.557 59.5795 235.205 61.4205 236.409 63.6705C237.614 65.8977 238.216 68.5682 238.216 71.6818V107H224.443V99.7386H224.034C223.193 101.375 222.068 102.818 220.659 104.068C219.25 105.295 217.557 106.261 215.58 106.966C213.602 107.648 211.318 107.989 208.727 107.989ZM212.886 97.9659C215.023 97.9659 216.909 97.5455 218.545 96.7045C220.182 95.8409 221.466 94.6818 222.398 93.2273C223.33 91.7727 223.795 90.125 223.795 88.2841V82.7273C223.341 83.0227 222.716 83.2955 221.92 83.5455C221.148 83.7727 220.273 83.9886 219.295 84.1932C218.318 84.375 217.341 84.5455 216.364 84.7045C215.386 84.8409 214.5 84.9659 213.705 85.0795C212 85.3295 210.511 85.7273 209.239 86.2727C207.966 86.8182 206.977 87.5568 206.273 88.4886C205.568 89.3977 205.216 90.5341 205.216 91.8977C205.216 93.875 205.932 95.3864 207.364 96.4318C208.818 97.4545 210.659 97.9659 212.886 97.9659ZM273.142 108.023C267.778 108.023 263.165 106.886 259.301 104.614C255.46 102.318 252.506 99.1364 250.438 95.0682C248.392 91 247.369 86.3182 247.369 81.0227C247.369 75.6591 248.403 70.9545 250.472 66.9091C252.563 62.8409 255.528 59.6705 259.369 57.3977C263.21 55.1023 267.778 53.9545 273.074 53.9545C277.642 53.9545 281.642 54.7841 285.074 56.4432C288.506 58.1023 291.222 60.4318 293.222 63.4318C295.222 66.4318 296.324 69.9545 296.528 74H282.824C282.438 71.3864 281.415 69.2841 279.756 67.6932C278.119 66.0795 275.972 65.2727 273.312 65.2727C271.062 65.2727 269.097 65.8864 267.415 67.1136C265.756 68.3182 264.46 70.0795 263.528 72.3977C262.597 74.7159 262.131 77.5227 262.131 80.8182C262.131 84.1591 262.585 87 263.494 89.3409C264.426 91.6818 265.733 93.4659 267.415 94.6932C269.097 95.9205 271.062 96.5341 273.312 96.5341C274.972 96.5341 276.46 96.1932 277.778 95.5114C279.119 94.8295 280.222 93.8409 281.085 92.5455C281.972 91.2273 282.551 89.6477 282.824 87.8068H296.528C296.301 91.8068 295.21 95.3295 293.256 98.375C291.324 101.398 288.653 103.761 285.244 105.466C281.835 107.17 277.801 108.023 273.142 108.023ZM325.122 107.852C321.145 107.852 317.543 106.83 314.315 104.784C311.111 102.716 308.565 99.6818 306.679 95.6818C304.815 91.6591 303.884 86.7273 303.884 80.8864C303.884 74.8864 304.849 69.8977 306.781 65.9205C308.713 61.9205 311.281 58.9318 314.486 56.9545C317.713 54.9545 321.247 53.9545 325.088 53.9545C328.02 53.9545 330.463 54.4545 332.418 55.4545C334.395 56.4318 335.986 57.6591 337.19 59.1364C338.418 60.5909 339.349 62.0227 339.986 63.4318H340.429V37.1818H354.918V107H340.599V98.6136H339.986C339.304 100.068 338.338 101.511 337.088 102.943C335.861 104.352 334.259 105.523 332.281 106.455C330.327 107.386 327.94 107.852 325.122 107.852ZM329.724 96.2955C332.065 96.2955 334.043 95.6591 335.656 94.3864C337.293 93.0909 338.543 91.2841 339.406 88.9659C340.293 86.6477 340.736 83.9318 340.736 80.8182C340.736 77.7045 340.304 75 339.44 72.7045C338.577 70.4091 337.327 68.6364 335.69 67.3864C334.054 66.1364 332.065 65.5114 329.724 65.5114C327.338 65.5114 325.327 66.1591 323.69 67.4545C322.054 68.75 320.815 70.5455 319.974 72.8409C319.134 75.1364 318.713 77.7955 318.713 80.8182C318.713 83.8636 319.134 86.5568 319.974 88.8977C320.838 91.2159 322.077 93.0341 323.69 94.3523C325.327 95.6477 327.338 96.2955 329.724 96.2955ZM390.722 108.023C385.335 108.023 380.699 106.932 376.812 104.75C372.949 102.545 369.972 99.4318 367.881 95.4091C365.79 91.3636 364.744 86.5795 364.744 81.0568C364.744 75.6705 365.79 70.9432 367.881 66.875C369.972 62.8068 372.915 59.6364 376.71 57.3636C380.528 55.0909 385.006 53.9545 390.142 53.9545C393.597 53.9545 396.813 54.5114 399.79 55.625C402.79 56.7159 405.403 58.3636 407.631 60.5682C409.881 62.7727 411.631 65.5455 412.881 68.8864C414.131 72.2045 414.756 76.0909 414.756 80.5455V84.5341H370.54V75.5341H401.085C401.085 73.4432 400.631 71.5909 399.722 69.9773C398.813 68.3636 397.551 67.1023 395.938 66.1932C394.347 65.2614 392.494 64.7955 390.381 64.7955C388.176 64.7955 386.222 65.3068 384.517 66.3295C382.835 67.3295 381.517 68.6818 380.562 70.3864C379.608 72.0682 379.119 73.9432 379.097 76.0114V84.5682C379.097 87.1591 379.574 89.3977 380.528 91.2841C381.506 93.1705 382.881 94.625 384.653 95.6477C386.426 96.6705 388.528 97.1818 390.96 97.1818C392.574 97.1818 394.051 96.9545 395.392 96.5C396.733 96.0455 397.881 95.3636 398.835 94.4545C399.79 93.5455 400.517 92.4318 401.017 91.1136L414.449 92C413.767 95.2273 412.369 98.0455 410.256 100.455C408.165 102.841 405.46 104.705 402.142 106.045C398.847 107.364 395.04 108.023 390.722 108.023ZM471.645 54.6364L453.338 107H436.974L418.668 54.6364H434.009L444.884 92.1023H445.429L456.27 54.6364H471.645Z" fill="url(#paint1_linear_89_2)"/>
<defs>
<linearGradient id="paint0_linear_89_2" x1="85.5" y1="36" x2="85.5" y2="107" gradientUnits="userSpaceOnUse">
<stop stop-color="#E57C23"/>
<stop offset="1" stop-color="#E8AA42"/>
</linearGradient>
<linearGradient id="paint1_linear_89_2" x1="193.478" y1="46.5303" x2="533.883" y2="92.765" gradientUnits="userSpaceOnUse">
<stop stop-color="#E57C23"/>
<stop offset="1" stop-color="#E57C23"/>
</linearGradient>
</defs>
</svg>
